<svg id="图层_1" data-name="图层 1" xmlns="http://www.w3.org/2000/svg" xmlns:xlink="http://www.w3.org/1999/xlink" viewBox="0 0 523.97 202.86"><defs><style>.cls-1{fill:#9f8d60;}.cls-2{fill:#0d376a;}.cls-3{fill:url(#未命名的渐变_26);}.cls-4{fill:url(#未命名的渐变_26-2);}.cls-5{fill:url(#未命名的渐变_26-3);}.cls-6{fill:url(#未命名的渐变_26-4);}.cls-7{fill:url(#未命名的渐变_26-5);}.cls-8{fill:url(#未命名的渐变_26-6);}.cls-9{fill:url(#未命名的渐变_26-7);}.cls-10{fill:url(#未命名的渐变_26-8);}.cls-11{fill:url(#未命名的渐变_26-9);}.cls-12{fill:url(#未命名的渐变_26-10);}.cls-13{fill:url(#未命名的渐变_26-11);}.cls-14{fill:url(#未命名的渐变_26-12);}.cls-15{fill:url(#未命名的渐变_26-13);}.cls-16{fill:url(#未命名的渐变_26-14);}.cls-17{fill:url(#linear-gradient);}.cls-18{fill:url(#linear-gradient-2);}.cls-19{fill:url(#linear-gradient-3);}.cls-20{fill:url(#linear-gradient-4);}.cls-21{fill:url(#linear-gradient-5);}.cls-22{fill:url(#linear-gradient-6);}.cls-23{fill:url(#linear-gradient-7);}.cls-24{fill:none;}.cls-25{fill:url(#linear-gradient-8);}.cls-26{fill:url(#linear-gradient-9);}.cls-27{fill:url(#linear-gradient-10);}.cls-28{fill:url(#linear-gradient-11);}.cls-29{fill:url(#linear-gradient-12);}.cls-30{fill:url(#linear-gradient-13);}.cls-31{fill:url(#linear-gradient-14);}.cls-32{fill:url(#linear-gradient-15);}.cls-33{fill:url(#linear-gradient-16);}.cls-34{fill:url(#linear-gradient-17);}.cls-35{fill:url(#linear-gradient-18);}.cls-36{fill:url(#linear-gradient-19);}.cls-37{fill:url(#linear-gradient-20);}.cls-38{fill:url(#linear-gradient-21);}.cls-39{fill:url(#linear-gradient-22);}.cls-40{fill:url(#linear-gradient-23);}.cls-41{fill:url(#linear-gradient-24);}.cls-42{fill:url(#linear-gradient-25);}.cls-43{fill:url(#linear-gradient-26);}.cls-44{fill:url(#linear-gradient-27);}.cls-45{fill:url(#linear-gradient-28);}.cls-46{fill:url(#linear-gradient-29);}.cls-47{fill:url(#linear-gradient-30);}.cls-48{fill:url(#linear-gradient-31);}.cls-49{fill:url(#linear-gradient-32);}.cls-50{fill:url(#linear-gradient-33);}.cls-51{fill:url(#linear-gradient-34);}.cls-52{fill:url(#linear-gradient-35);}.cls-53{fill:url(#linear-gradient-36);}.cls-54{fill:url(#linear-gradient-37);}.cls-55{fill:url(#linear-gradient-38);}.cls-56{fill:url(#linear-gradient-39);}.cls-57{fill:url(#linear-gradient-40);}.cls-58{fill:url(#linear-gradient-41);}.cls-59{fill:url(#linear-gradient-42);}.cls-60{fill:url(#linear-gradient-43);}.cls-61{fill:url(#linear-gradient-44);}.cls-62{fill:url(#linear-gradient-45);}.cls-63{fill:url(#linear-gradient-46);}.cls-64{fill:url(#linear-gradient-47);}.cls-65{fill:url(#linear-gradient-48);}.cls-66{fill:url(#linear-gradient-49);}.cls-67{fill:url(#linear-gradient-50);}.cls-68{fill:url(#linear-gradient-51);}.cls-69{fill:url(#linear-gradient-52);}.cls-70{fill:url(#linear-gradient-53);}</style><linearGradient id="未命名的渐变_26" x1="11.73" y1="139" x2="137.53" y2="139" gradientUnits="userSpaceOnUse"><stop offset="0" stop-color="#ac883c"/><stop offset="0.28" stop-color="#a38751"/><stop offset="0.36" stop-color="#a68540"/><stop offset="0.46" stop-color="#938b80"/><stop offset="0.51" stop-color="#b69044"/><stop offset="0.67" stop-color="#f8e3bb"/><stop offset="1" stop-color="#cbb586"/></linearGradient><linearGradient id="未命名的渐变_26-2" x1="11.73" y1="151.25" x2="137.53" y2="151.25" xlink:href="#未命名的渐变_26"/><linearGradient id="未命名的渐变_26-3" x1="11.73" y1="144.68" x2="137.53" y2="144.68" xlink:href="#未命名的渐变_26"/><linearGradient id="未命名的渐变_26-4" x1="11.73" y1="161.46" x2="137.53" y2="161.46" xlink:href="#未命名的渐变_26"/><linearGradient id="未命名的渐变_26-5" x1="11.73" y1="153.45" x2="137.53" y2="153.45" xlink:href="#未命名的渐变_26"/><linearGradient id="未命名的渐变_26-6" x1="11.73" y1="170.13" x2="137.53" y2="170.13" xlink:href="#未命名的渐变_26"/><linearGradient id="未命名的渐变_26-7" x1="11.73" y1="160.94" x2="137.53" y2="160.94" xlink:href="#未命名的渐变_26"/><linearGradient id="未命名的渐变_26-8" x1="11.73" y1="177.05" x2="137.53" y2="177.05" xlink:href="#未命名的渐变_26"/><linearGradient id="未命名的渐变_26-9" x1="11.73" y1="166.92" x2="137.53" y2="166.92" xlink:href="#未命名的渐变_26"/><linearGradient id="未命名的渐变_26-10" x1="11.73" y1="182.09" x2="137.53" y2="182.09" xlink:href="#未命名的渐变_26"/><linearGradient id="未命名的渐变_26-11" x1="11.73" y1="171.22" x2="137.53" y2="171.22" xlink:href="#未命名的渐变_26"/><linearGradient id="未命名的渐变_26-12" x1="11.73" y1="191.46" x2="137.53" y2="191.46" xlink:href="#未命名的渐变_26"/><linearGradient id="未命名的渐变_26-13" x1="11.73" y1="180.83" x2="137.53" y2="180.83" xlink:href="#未命名的渐变_26"/><linearGradient id="未命名的渐变_26-14" x1="11.73" y1="180.8" x2="137.53" y2="180.8" xlink:href="#未命名的渐变_26"/><linearGradient id="linear-gradient" x1="13.88" y1="117.13" x2="136.23" y2="117.13" gradientTransform="matrix(1, 0, 0, -1, -0.05, 204.62)" gradientUnits="userSpaceOnUse"><stop offset="0" stop-color="#ac883c"/><stop offset="0.28" stop-color="#a38751"/><stop offset="0.36" stop-color="#957838"/><stop offset="0.46" stop-color="#a49072"/><stop offset="0.51" stop-color="#b69044"/><stop offset="0.53" stop-color="#fbebc9"/><stop offset="0.86" stop-color="#f8e3bb"/><stop offset="1" stop-color="#cbb586"/></linearGradient><linearGradient id="linear-gradient-2" x1="15.12" y1="116.41" x2="134.84" y2="116.41" gradientTransform="matrix(1, 0, 0, -1, -0.05, 204.62)" gradientUnits="userSpaceOnUse"><stop offset="0" stop-color="#ac883c"/><stop offset="0.28" stop-color="#a38751"/><stop offset="0.36" stop-color="#a68540"/><stop offset="0.46" stop-color="#938b80"/><stop offset="0.51" stop-color="#b69044"/><stop offset="0.53" stop-color="#fbebc9"/><stop offset="0.86" stop-color="#f8e3bb"/><stop offset="1" stop-color="#cbb586"/></linearGradient><linearGradient id="linear-gradient-3" x1="71.41" y1="29.51" x2="79.2" y2="29.51" gradientUnits="userSpaceOnUse"><stop offset="0" stop-color="#e6e6da"/><stop offset="0.55" stop-color="#ecdcb8"/><stop offset="1" stop-color="#f9f0bb"/></linearGradient><linearGradient id="linear-gradient-4" x1="71.41" y1="66.77" x2="79.2" y2="66.77" xlink:href="#linear-gradient-3"/><linearGradient id="linear-gradient-5" x1="57.44" y1="44.64" x2="65.22" y2="44.64" xlink:href="#linear-gradient-3"/><linearGradient id="linear-gradient-6" x1="78.68" y1="50.44" x2="83.11" y2="50.44" xlink:href="#linear-gradient-3"/><linearGradient id="linear-gradient-7" x1="83.83" y1="40.92" x2="91.62" y2="40.92" xlink:href="#linear-gradient-3"/><linearGradient id="linear-gradient-8" x1="37.12" y1="112.06" x2="45.77" y2="112.06" xlink:href="#linear-gradient-3"/><linearGradient id="linear-gradient-9" x1="38.66" y1="104.32" x2="62.98" y2="104.32" xlink:href="#linear-gradient-3"/><linearGradient id="linear-gradient-10" x1="54.43" y1="99.8" x2="104.34" y2="99.8" xlink:href="#linear-gradient-3"/><linearGradient id="linear-gradient-11" x1="43.98" y1="82.74" x2="58.72" y2="82.74" xlink:href="#linear-gradient-3"/><linearGradient id="linear-gradient-12" x1="49.16" y1="75.04" x2="51.95" y2="75.04" xlink:href="#linear-gradient-3"/><linearGradient id="linear-gradient-13" x1="56.26" y1="76.97" x2="57.89" y2="76.97" xlink:href="#linear-gradient-3"/><linearGradient id="linear-gradient-14" x1="60.91" y1="79.47" x2="62.89" y2="79.47" xlink:href="#linear-gradient-3"/><linearGradient id="linear-gradient-15" x1="63.56" y1="85.23" x2="66" y2="85.23" xlink:href="#linear-gradient-3"/><linearGradient id="linear-gradient-16" x1="91.54" y1="61.94" x2="95.94" y2="61.94" xlink:href="#linear-gradient-3"/><linearGradient id="linear-gradient-17" x1="95.4" y1="60.63" x2="102.05" y2="60.63" xlink:href="#linear-gradient-3"/><linearGradient id="linear-gradient-18" x1="99.76" y1="61.08" x2="109.58" y2="61.08" xlink:href="#linear-gradient-3"/><linearGradient id="linear-gradient-19" x1="103.8" y1="62.54" x2="117.69" y2="62.54" xlink:href="#linear-gradient-3"/><linearGradient id="linear-gradient-20" x1="108.68" y1="67.3" x2="122.61" y2="67.3" xlink:href="#linear-gradient-3"/><linearGradient id="linear-gradient-21" x1="114.32" y1="70.87" x2="123.23" y2="70.87" xlink:href="#linear-gradient-3"/><linearGradient id="linear-gradient-22" x1="116.52" y1="76.64" x2="127.85" y2="76.64" xlink:href="#linear-gradient-3"/><linearGradient id="linear-gradient-23" x1="118.97" y1="80.48" x2="128.24" y2="80.48" xlink:href="#linear-gradient-3"/><linearGradient id="linear-gradient-24" x1="118.45" y1="85.24" x2="124.05" y2="85.24" xlink:href="#linear-gradient-3"/><linearGradient id="linear-gradient-25" x1="116.86" y1="88.55" x2="120.22" y2="88.55" xlink:href="#linear-gradient-3"/><linearGradient id="linear-gradient-26" x1="88.75" y1="79.22" x2="96.77" y2="79.22" xlink:href="#linear-gradient-3"/><linearGradient id="linear-gradient-27" x1="89.35" y1="81.83" x2="100.97" y2="81.83" xlink:href="#linear-gradient-3"/><linearGradient id="linear-gradient-28" x1="91.46" y1="85.33" x2="104.5" y2="85.33" xlink:href="#linear-gradient-3"/><linearGradient id="linear-gradient-29" x1="93.46" y1="89.68" x2="107.63" y2="89.68" xlink:href="#linear-gradient-3"/><linearGradient id="linear-gradient-30" x1="96.18" y1="95.27" x2="107.79" y2="95.27" xlink:href="#linear-gradient-3"/><linearGradient id="linear-gradient-31" x1="95.01" y1="103.08" x2="101.79" y2="103.08" xlink:href="#linear-gradient-3"/><linearGradient id="linear-gradient-32" x1="81.05" y1="106.03" x2="90.05" y2="106.03" xlink:href="#linear-gradient-3"/><linearGradient id="linear-gradient-33" x1="81.95" y1="100.15" x2="91.29" y2="100.15" xlink:href="#linear-gradient-3"/><linearGradient id="linear-gradient-34" x1="81.91" y1="95.14" x2="88.71" y2="95.14" xlink:href="#linear-gradient-3"/><linearGradient id="linear-gradient-35" x1="81.21" y1="89.08" x2="87.45" y2="89.08" xlink:href="#linear-gradient-3"/><linearGradient id="linear-gradient-36" x1="106.1" y1="76.77" x2="111.76" y2="76.77" xlink:href="#linear-gradient-3"/><linearGradient id="linear-gradient-37" x1="108.89" y1="80.89" x2="114.17" y2="80.89" xlink:href="#linear-gradient-3"/><linearGradient id="linear-gradient-38" x1="110.19" y1="83.95" x2="115.9" y2="83.95" xlink:href="#linear-gradient-3"/><linearGradient id="linear-gradient-39" x1="110.47" y1="88.96" x2="114.63" y2="88.96" xlink:href="#linear-gradient-3"/><linearGradient id="linear-gradient-40" x1="110.22" y1="93.84" x2="113.69" y2="93.84" xlink:href="#linear-gradient-3"/><linearGradient id="linear-gradient-41" x1="84.03" y1="109.54" x2="89.54" y2="109.54" xlink:href="#linear-gradient-3"/><linearGradient id="linear-gradient-42" x1="87.33" y1="112.02" x2="89.98" y2="112.02" xlink:href="#linear-gradient-3"/><linearGradient id="linear-gradient-43" x1="95.25" y1="106.47" x2="100.15" y2="106.47" xlink:href="#linear-gradient-3"/><linearGradient id="linear-gradient-44" x1="96.1" y1="108.75" x2="98.72" y2="108.75" xlink:href="#linear-gradient-3"/><linearGradient id="linear-gradient-45" x1="45.5" y1="134.5" x2="54.72" y2="134.5" xlink:href="#linear-gradient-3"/><linearGradient id="linear-gradient-46" x1="46.69" y1="121.86" x2="57.95" y2="121.86" xlink:href="#linear-gradient-3"/><linearGradient id="linear-gradient-47" x1="43.58" y1="136.87" x2="45.32" y2="136.87" xlink:href="#linear-gradient-3"/><linearGradient id="linear-gradient-48" x1="44.37" y1="131.75" x2="47.43" y2="131.75" xlink:href="#linear-gradient-3"/><linearGradient id="linear-gradient-49" x1="41.16" y1="131.03" x2="43.41" y2="131.03" xlink:href="#linear-gradient-3"/><linearGradient id="linear-gradient-50" x1="37.3" y1="130.56" x2="38.29" y2="130.56" xlink:href="#linear-gradient-3"/><linearGradient id="linear-gradient-51" x1="36.79" y1="125.99" x2="40.13" y2="125.99" xlink:href="#linear-gradient-3"/><linearGradient id="linear-gradient-52" x1="34.73" y1="127.97" x2="36.61" y2="127.97" xlink:href="#linear-gradient-3"/><linearGradient id="linear-gradient-53" x1="40.36" y1="125.26" x2="44.94" y2="125.26" xlink:href="#linear-gradient-3"/></defs><title>final datum college logo</title><path class="cls-1" d="M196.91,161.47a16.94,16.94,0,0,1-6.76-1.39,17.32,17.32,0,0,1-5.73-4,19.45,19.45,0,0,1-3.94-6.38,23.17,23.17,0,0,1-1.47-8.49,24.27,24.27,0,0,1,1.44-8.57,20.1,20.1,0,0,1,4-6.63,17.52,17.52,0,0,1,6-4.25A19.1,19.1,0,0,1,203,121a19.64,19.64,0,0,1,4.49,2l1.14-1.89h2.22l.25,14.05h-2.28a33.14,33.14,0,0,0-1.33-4.46,17.27,17.27,0,0,0-2.08-4.07,10.09,10.09,0,0,0-3.16-3,8.15,8.15,0,0,0-4.19-1.07,10.76,10.76,0,0,0-5,1.2,11.41,11.41,0,0,0-4,3.53,17.41,17.41,0,0,0-2.52,5.73,30.43,30.43,0,0,0-.92,7.75,23.81,23.81,0,0,0,1,6.93,17.93,17.93,0,0,0,2.73,5.54,13.17,13.17,0,0,0,4.2,3.7,11.06,11.06,0,0,0,5.42,1.33,11.66,11.66,0,0,0,4.13-.71,11.1,11.1,0,0,0,3.27-1.87,14.59,14.59,0,0,0,2.44-2.78,15.32,15.32,0,0,0,1.72-3.39l2.08,1q-2.39,5.86-6.33,8.37A17.06,17.06,0,0,1,196.91,161.47Z"/><path class="cls-1" d="M260.71,125.79a19.35,19.35,0,0,1,4.08,6.57,23.64,23.64,0,0,1,1.47,8.51,23.22,23.22,0,0,1-1.5,8.53,19,19,0,0,1-4.17,6.53,18.06,18.06,0,0,1-6,4.11,19.27,19.27,0,0,1-14.87-.1,17.63,17.63,0,0,1-6-4.29,19.43,19.43,0,0,1-3.93-6.54,23.42,23.42,0,0,1-1.43-8.23,23,23,0,0,1,1.5-8.57,20,20,0,0,1,4.14-6.51,17.86,17.86,0,0,1,6.07-4.17,19.06,19.06,0,0,1,14.62,0A17.67,17.67,0,0,1,260.71,125.79Zm-4.14,27.94a18.45,18.45,0,0,0,2.26-5.72,35.85,35.85,0,0,0-.08-14.58,18.46,18.46,0,0,0-2.32-5.78A11.11,11.11,0,0,0,252.6,124a10.44,10.44,0,0,0-5.28-1.32,10.11,10.11,0,0,0-5.67,1.53,11.86,11.86,0,0,0-3.8,4.08,19.54,19.54,0,0,0-2.07,5.72,33.78,33.78,0,0,0-.68,6.89,33.06,33.06,0,0,0,.72,7.22,18.31,18.31,0,0,0,2.28,5.72,11.21,11.21,0,0,0,3.78,3.82,10.33,10.33,0,0,0,5.44,1.38,10.47,10.47,0,0,0,5.36-1.39A10.87,10.87,0,0,0,256.57,153.73Z"/><path class="cls-1" d="M315.63,148.81l-.83,11.72H284v-2l1.93-.19a6.64,6.64,0,0,0,1.76-.36,2.39,2.39,0,0,0,1.21-1.05,3.72,3.72,0,0,0,.38-1.78V127a4.09,4.09,0,0,0-.32-1.67,2.42,2.42,0,0,0-1.26-1.17,9.54,9.54,0,0,0-1.79-.65,10.35,10.35,0,0,0-1.9-.37v-2h16.63v2a12.89,12.89,0,0,0-2,.28,15,15,0,0,0-1.79.44,2.07,2.07,0,0,0-1.29,1.14,4.3,4.3,0,0,0-.35,1.72v26.46a17.13,17.13,0,0,0,.18,2.85,2.53,2.53,0,0,0,.85,1.57,3.81,3.81,0,0,0,1.9.65,31.45,31.45,0,0,0,3.54.15q1,0,2.14-.06a18.63,18.63,0,0,0,2.11-.22,10.81,10.81,0,0,0,1.79-.46,2.85,2.85,0,0,0,1.21-.74,24.85,24.85,0,0,0,2.65-3.87,27.64,27.64,0,0,0,2.1-4.21Z"/><path class="cls-1" d="M362.75,148.81l-.83,11.72h-30.8v-2l1.93-.19a6.64,6.64,0,0,0,1.76-.36,2.39,2.39,0,0,0,1.21-1.05,3.72,3.72,0,0,0,.38-1.78V127a4.1,4.1,0,0,0-.32-1.67,2.42,2.42,0,0,0-1.26-1.17,9.54,9.54,0,0,0-1.79-.65,10.35,10.35,0,0,0-1.9-.37v-2h16.63v2a12.88,12.88,0,0,0-2,.28,15,15,0,0,0-1.79.44,2.07,2.07,0,0,0-1.29,1.14,4.3,4.3,0,0,0-.35,1.72v26.46a17.13,17.13,0,0,0,.18,2.85,2.53,2.53,0,0,0,.85,1.57,3.81,3.81,0,0,0,1.9.65,31.44,31.44,0,0,0,3.54.15q1,0,2.14-.06a18.63,18.63,0,0,0,2.11-.22,10.77,10.77,0,0,0,1.79-.46,2.84,2.84,0,0,0,1.21-.74,24.84,24.84,0,0,0,2.65-3.87,27.64,27.64,0,0,0,2.1-4.21Z"/><path class="cls-1" d="M411.37,148.92l-.75,11.61H377.91v-2q.83-.06,2.22-.24a7.53,7.53,0,0,0,1.81-.37,2.53,2.53,0,0,0,1.24-1.08,3.65,3.65,0,0,0,.35-1.69V126.84a4.08,4.08,0,0,0-.31-1.62,2.37,2.37,0,0,0-1.28-1.15,9.41,9.41,0,0,0-2-.64,15.1,15.1,0,0,0-2-.33v-2H408.4v9.5h-2.08a12.8,12.8,0,0,0-2.4-4.49q-1.85-2.37-3.51-2.6-.86-.11-2.05-.17t-2.72-.06h-6.19V139h4.44a8.88,8.88,0,0,0,3.12-.4,4.29,4.29,0,0,0,1.74-1.35,7.18,7.18,0,0,0,1-2.15,13.51,13.51,0,0,0,.57-2.54h2.08V148h-2.08a12.47,12.47,0,0,0-.6-2.82,7.21,7.21,0,0,0-1-2.15,4,4,0,0,0-2-1.42,10.29,10.29,0,0,0-2.9-.33h-4.44v11.81a12.34,12.34,0,0,0,.25,2.8,2.59,2.59,0,0,0,1,1.55,4.16,4.16,0,0,0,2,.68,31.39,31.39,0,0,0,3.55.15h2.42a24.07,24.07,0,0,0,2.53-.11,14.82,14.82,0,0,0,2.18-.4,3.34,3.34,0,0,0,1.6-.79,17.74,17.74,0,0,0,2.68-4,27.26,27.26,0,0,0,1.79-4Z"/><path class="cls-1" d="M466.32,144.81l-1.79.26a6.78,6.78,0,0,0-1.82.51,2.44,2.44,0,0,0-1.18,1.18,4.29,4.29,0,0,0-.35,1.79v3.05q0,3.33,0,4.5t.1,1.92a42,42,0,0,1-7.36,2.55,30.5,30.5,0,0,1-7.19.89,19.21,19.21,0,0,1-7.28-1.42,18.21,18.21,0,0,1-6.11-4,19.4,19.4,0,0,1-4.19-6.42,22,22,0,0,1-1.55-8.45,23,23,0,0,1,1.49-8.35,19.85,19.85,0,0,1,4.21-6.68,18.46,18.46,0,0,1,6.29-4.32,19.89,19.89,0,0,1,7.82-1.54,18.78,18.78,0,0,1,5.8.81A21.08,21.08,0,0,1,457.6,123l1.14-1.89H461l.25,13.77h-2.28a39,39,0,0,0-1.45-4.48,15.69,15.69,0,0,0-2.22-4,10.28,10.28,0,0,0-3.32-2.79,9.87,9.87,0,0,0-4.68-1,11.38,11.38,0,0,0-5.31,1.21,11.58,11.58,0,0,0-4.06,3.6,17,17,0,0,0-2.61,5.75,29.91,29.91,0,0,0-.92,7.7,26.83,26.83,0,0,0,.9,7.07,17.86,17.86,0,0,0,2.63,5.74,12.56,12.56,0,0,0,4.31,3.89,12,12,0,0,0,5.87,1.42,12.71,12.71,0,0,0,4.46-.75,8.12,8.12,0,0,0,2.85-1.58,20.42,20.42,0,0,0,.24-2.92q0-1.47,0-2.5v-2.17a6.18,6.18,0,0,0-.32-2.07A2.21,2.21,0,0,0,454,145.7a9,9,0,0,0-2.49-.62q-1.57-.21-2.46-.26v-2h17.27Z"/><path class="cls-1" d="M515.36,148.92l-.75,11.61H481.9v-2q.83-.06,2.22-.24a7.53,7.53,0,0,0,1.81-.37,2.53,2.53,0,0,0,1.24-1.08,3.65,3.65,0,0,0,.35-1.69V126.84a4.08,4.08,0,0,0-.31-1.62,2.37,2.37,0,0,0-1.28-1.15,9.41,9.41,0,0,0-2-.64,15.1,15.1,0,0,0-2-.33v-2h30.49v9.5H510.3a12.8,12.8,0,0,0-2.4-4.49q-1.85-2.37-3.51-2.6-.86-.11-2.05-.17t-2.72-.06h-6.19V139h4.44a8.88,8.88,0,0,0,3.12-.4,4.29,4.29,0,0,0,1.74-1.35,7.18,7.18,0,0,0,1-2.15,13.51,13.51,0,0,0,.57-2.54h2.08V148h-2.08a12.47,12.47,0,0,0-.6-2.82,7.21,7.21,0,0,0-1-2.15,4,4,0,0,0-2-1.42,10.29,10.29,0,0,0-2.9-.33h-4.44v11.81a12.34,12.34,0,0,0,.25,2.8,2.59,2.59,0,0,0,1,1.55,4.16,4.16,0,0,0,2,.68,31.39,31.39,0,0,0,3.55.15h2.42a24.07,24.07,0,0,0,2.53-.11,14.82,14.82,0,0,0,2.18-.4,3.34,3.34,0,0,0,1.6-.79,17.74,17.74,0,0,0,2.68-4,27.26,27.26,0,0,0,1.79-4Z"/><path class="cls-2" d="M225.45,50.64a24.51,24.51,0,0,1,7.64,8.81A28.52,28.52,0,0,1,236,72.92a26.9,26.9,0,0,1-2.6,12.19,24.24,24.24,0,0,1-6.89,8.5,30.25,30.25,0,0,1-9.91,4.92A41.43,41.43,0,0,1,205,100.13H179v-3q1.16,0,2.91-.23a8.77,8.77,0,0,0,2.33-.47A3.56,3.56,0,0,0,186,94.82a5.18,5.18,0,0,0,.51-2.39V53.32a5.85,5.85,0,0,0-.47-2.39,3.6,3.6,0,0,0-1.86-1.73,10.32,10.32,0,0,0-2.93-.89q-1.55-.23-2.38-.31V45h27.46a40.5,40.5,0,0,1,9.42,1.21A28.33,28.33,0,0,1,225.45,50.64ZM218,90.18a23.77,23.77,0,0,0,2.6-7.41,53.32,53.32,0,0,0,.82-9.89,42.51,42.51,0,0,0-1.09-10,24.14,24.14,0,0,0-3.2-7.7,15,15,0,0,0-5.26-4.94,14.46,14.46,0,0,0-7.15-1.75q-1.27,0-2.89.06l-2.42.1V90.53a8,8,0,0,0,.35,2.47A4.56,4.56,0,0,0,201,94.88,5.68,5.68,0,0,0,203,96.15a9.4,9.4,0,0,0,3.18.45A14.35,14.35,0,0,0,213.27,95,12.42,12.42,0,0,0,218,90.18Z"/><path class="cls-2" d="M305.61,100.13H277.49v-3a32.89,32.89,0,0,0,4.61-.76q2.65-.6,2.65-1.5a4.3,4.3,0,0,0-.36-1.75L280,81.66H262.16q-.62,1.59-1.36,3.73t-1.28,3.81a21.1,21.1,0,0,0-.81,3.15,12.16,12.16,0,0,0-.13,1.36q0,1.25,1.76,2.12a18.11,18.11,0,0,0,5.87,1.26v3H245v-3a18.3,18.3,0,0,0,2.71-.41,7,7,0,0,0,2.38-.91,9.43,9.43,0,0,0,2.53-2.29,12.38,12.38,0,0,0,1.73-3.23l8.46-21.89q4.24-11,9.37-24.18h7.28q7.13,18.74,11.17,29.63t6.88,18a9.07,9.07,0,0,0,1.2,2.12,7.8,7.8,0,0,0,4.44,2.74,16,16,0,0,0,2.44.39ZM278.48,77.81,271,57.87l-7.36,19.94Z"/><path class="cls-2" d="M362.56,60.75h-2.84a34.87,34.87,0,0,0-3.61-7.58q-2.49-4-4.59-4.35-1.16-.15-2.87-.27t-2.94-.12H344V91.69a6,6,0,0,0,.47,2.47,3.43,3.43,0,0,0,1.85,1.69,15.5,15.5,0,0,0,2.6.72q1.76.37,3,.53v3H323.16v-3l3-.33a9.93,9.93,0,0,0,2.6-.52,3.46,3.46,0,0,0,1.89-1.67,6,6,0,0,0,.47-2.49V48.42h-1.71q-1.23,0-2.94.12t-2.87.27q-2.11.31-4.59,4.35a34.88,34.88,0,0,0-3.61,7.58h-2.84V45h50Z"/><path class="cls-2" d="M433.47,48q-1.05.12-3,.53a8.21,8.21,0,0,0-3.33,1.42,5.56,5.56,0,0,0-1.95,3.5,37.53,37.53,0,0,0-.56,7.58V81.55q0,9.06-5.75,14.58t-15.21,5.52q-11,0-17.06-5.33t-6-14.85V53.24a5.13,5.13,0,0,0-.49-2.33,4.43,4.43,0,0,0-1.87-1.75,9.28,9.28,0,0,0-2.33-.82q-1.38-.31-2.26-.43V45h27.06v3a21.93,21.93,0,0,0-2.36.29,16.07,16.07,0,0,0-2.44.64A2.89,2.89,0,0,0,394,50.41a6.08,6.08,0,0,0-.47,2.45V80.69q0,8.2,3.38,11.94t9.81,3.73q6.32,0,9.92-4.12t3.6-12.13V61.41a32.2,32.2,0,0,0-.64-7.45,6.64,6.64,0,0,0-1.95-3.56,8.83,8.83,0,0,0-3.29-1.56,31.71,31.71,0,0,0-3.29-.86V45h22.41Z"/><path class="cls-2" d="M515.55,100.13h-28v-3q1.24-.12,3-.39a10,10,0,0,0,2.46-.58A3.92,3.92,0,0,0,495,94.53a5.09,5.09,0,0,0,.58-2.57V50.76L477.83,99.24h-4.58q-.33-1.28-1.62-5.09T469.54,88L456.48,50.13V83.69a33.69,33.69,0,0,0,.6,7.33A6.81,6.81,0,0,0,459,94.69a9.23,9.23,0,0,0,3.26,1.56,22.13,22.13,0,0,0,3.29.86v3H443.38v-3q.91-.12,3-.53a8,8,0,0,0,3.36-1.42,5.77,5.77,0,0,0,2-3.67,40.62,40.62,0,0,0,.51-7.37V56.78a12.61,12.61,0,0,0-.58-4.14A5.87,5.87,0,0,0,449.86,50a7.23,7.23,0,0,0-3-1.55,20.78,20.78,0,0,0-3.09-.47V45h23.79l12.72,36.35L491,51.81q.54-1.63,1.05-3.89a23.11,23.11,0,0,0,.54-3h22.87v3a21.53,21.53,0,0,0-2.44.31,17.83,17.83,0,0,0-2.44.62,3,3,0,0,0-1.87,1.59,6.18,6.18,0,0,0-.46,2.41V92a5.43,5.43,0,0,0,.46,2.35A3.83,3.83,0,0,0,510.61,96a10.39,10.39,0,0,0,2.38.66q1.66.31,2.56.43Z"/><g id="_编组_" data-name="&lt;编组&gt;"><g id="_编组_2" data-name="&lt;编组&gt;"><path id="_路径_" data-name="&lt;路径&gt;" class="cls-3" d="M132.53,144a5.36,5.36,0,0,1-.18-5.64c1.25-2.1,4.06-3.79,5.83-4.7a1.12,1.12,0,0,1,1.63,1c0,2-.11,5.26-1.36,7.36a5.36,5.36,0,0,1-5,2.53A1.11,1.11,0,0,1,132.53,144Z"/></g><g id="_编组_3" data-name="&lt;编组&gt;"><path id="_路径_2" data-name="&lt;路径&gt;" class="cls-4" d="M129.34,151.84a5.36,5.36,0,0,1,3.95-4c2.38-.55,5.55.31,7.42,1a1.12,1.12,0,0,1,.43,1.85c-1.4,1.4-3.87,3.56-6.26,4.11a5.36,5.36,0,0,1-5.31-1.89A1.11,1.11,0,0,1,129.34,151.84Z"/><path id="_路径_3" data-name="&lt;路径&gt;" class="cls-5" d="M129.09,145.19a5.36,5.36,0,0,1-1.89,5.31,1.11,1.11,0,0,1-1,.23,5.36,5.36,0,0,1-4-3.95c-.55-2.38.31-5.55,1-7.42a1.12,1.12,0,0,1,1.85-.43C126.38,140.33,128.54,142.8,129.09,145.19Z"/></g><g id="_编组_4" data-name="&lt;编组&gt;"><path id="_路径_4" data-name="&lt;路径&gt;" class="cls-6" d="M121.45,161.19a5.36,5.36,0,0,1,4.59-3.28c2.44-.13,5.41,1.27,7.14,2.23a1.12,1.12,0,0,1,.1,1.9c-1.62,1.14-4.43,2.84-6.87,3a5.36,5.36,0,0,1-4.9-2.79A1.11,1.11,0,0,1,121.45,161.19Z"/><path id="_路径_5" data-name="&lt;路径&gt;" class="cls-7" d="M122.36,154.6a5.36,5.36,0,0,1-2.79,4.9,1.11,1.11,0,0,1-1,.05,5.36,5.36,0,0,1-3.28-4.59c-.13-2.44,1.27-5.41,2.23-7.14a1.12,1.12,0,0,1,1.9-.1C120.54,149.35,122.23,152.15,122.36,154.6Z"/></g><g id="_编组_5" data-name="&lt;编组&gt;"><path id="_路径_6" data-name="&lt;路径&gt;" class="cls-8" d="M112.06,169a5.36,5.36,0,0,1,5.09-2.43c2.43.3,5.11,2.19,6.65,3.44a1.12,1.12,0,0,1-.23,1.89c-1.8.84-4.86,2-7.28,1.72a5.36,5.36,0,0,1-4.34-3.59A1.11,1.11,0,0,1,112.06,169Z"/><path id="_路径_7" data-name="&lt;路径&gt;" class="cls-9" d="M114.1,162.7A5.36,5.36,0,0,1,110.5,167a1.11,1.11,0,0,1-1-.13,5.36,5.36,0,0,1-2.43-5.09c.3-2.43,2.19-5.11,3.44-6.65a1.12,1.12,0,0,1,1.89.23C113.21,157.21,114.4,160.27,114.1,162.7Z"/></g><g id="_编组_6" data-name="&lt;编组&gt;"><path id="_路径_8" data-name="&lt;路径&gt;" class="cls-10" d="M101.45,175.12a5.36,5.36,0,0,1,5.43-1.51c2.34.72,4.65,3,5.95,4.54a1.12,1.12,0,0,1-.56,1.82c-1.92.51-5.13,1.15-7.47.43a5.36,5.36,0,0,1-3.65-4.29A1.11,1.11,0,0,1,101.45,175.12Z"/><path id="_路径_9" data-name="&lt;路径&gt;" class="cls-11" d="M104.56,169.24a5.36,5.36,0,0,1-4.29,3.65,1.11,1.11,0,0,1-1-.3,5.36,5.36,0,0,1-1.51-5.43c.72-2.34,3-4.65,4.54-5.95a1.12,1.12,0,0,1,1.82.56C104.64,163.68,105.27,166.9,104.56,169.24Z"/></g><g id="_编组_7" data-name="&lt;编组&gt;"><path id="_路径_10" data-name="&lt;路径&gt;" class="cls-12" d="M89.94,179.28a5.36,5.36,0,0,1,5.61-.55c2.18,1.11,4.05,3.81,5.07,5.51a1.12,1.12,0,0,1-.86,1.69c-2,.17-5.26.24-7.43-.87a5.36,5.36,0,0,1-2.85-4.86A1.11,1.11,0,0,1,89.94,179.28Z"/><path id="_路径_11" data-name="&lt;路径&gt;" class="cls-13" d="M94,174a5.36,5.36,0,0,1-4.86,2.85,1.11,1.11,0,0,1-.92-.47,5.36,5.36,0,0,1-.55-5.61c1.11-2.18,3.81-4.05,5.51-5.07a1.12,1.12,0,0,1,1.69.86C95.07,168.56,95.13,171.84,94,174Z"/></g></g><g id="_编组_8" data-name="&lt;编组&gt;"><g id="_编组_9" data-name="&lt;编组&gt;"><path id="_路径_12" data-name="&lt;路径&gt;" class="cls-14" d="M74.59,185.37A5.36,5.36,0,0,0,71.45,190c-.06,2.45,1.43,5.37,2.44,7.08a1.12,1.12,0,0,0,1.9,0c1.09-1.66,2.71-4.51,2.76-7a5.36,5.36,0,0,0-2.93-4.82A1.11,1.11,0,0,0,74.59,185.37Z"/></g><g id="_编组_10" data-name="&lt;编组&gt;"><path id="_路径_13" data-name="&lt;路径&gt;" class="cls-15" d="M76.08,177a5.36,5.36,0,0,0,1.2,5.51c1.73,1.73,4.87,2.69,6.8,3.13a1.12,1.12,0,0,0,1.35-1.34c-.44-1.93-1.39-5.07-3.11-6.81a5.36,5.36,0,0,0-5.5-1.22A1.11,1.11,0,0,0,76.08,177Z"/><path id="_路径_14" data-name="&lt;路径&gt;" class="cls-16" d="M72.33,182.5a5.36,5.36,0,0,0,1.22-5.5,1.11,1.11,0,0,0-.73-.73,5.36,5.36,0,0,0-5.51,1.2c-1.73,1.73-2.69,4.87-3.13,6.8a1.12,1.12,0,0,0,1.34,1.35C67.46,185.17,70.6,184.22,72.33,182.5Z"/></g></g><g id="_编组_11" data-name="&lt;编组&gt;"><g id="_编组_12" data-name="&lt;编组&gt;"><path id="_路径_15" data-name="&lt;路径&gt;" class="cls-3" d="M17,144a5.36,5.36,0,0,0,.18-5.64c-1.25-2.1-4.06-3.79-5.83-4.7a1.12,1.12,0,0,0-1.63,1c0,2,.11,5.26,1.36,7.36a5.36,5.36,0,0,0,5,2.53A1.11,1.11,0,0,0,17,144Z"/></g><g id="_编组_13" data-name="&lt;编组&gt;"><path id="_路径_16" data-name="&lt;路径&gt;" class="cls-4" d="M20.2,151.84a5.36,5.36,0,0,0-3.95-4c-2.38-.55-5.55.31-7.42,1a1.12,1.12,0,0,0-.43,1.85c1.4,1.4,3.87,3.56,6.26,4.11A5.36,5.36,0,0,0,20,152.84,1.11,1.11,0,0,0,20.2,151.84Z"/><path id="_路径_17" data-name="&lt;路径&gt;" class="cls-5" d="M20.45,145.19a5.36,5.36,0,0,0,1.89,5.31,1.11,1.11,0,0,0,1,.23,5.36,5.36,0,0,0,4-3.95c.55-2.38-.31-5.55-1-7.42a1.12,1.12,0,0,0-1.85-.43C23.16,140.33,21,142.8,20.45,145.19Z"/></g><g id="_编组_14" data-name="&lt;编组&gt;"><path id="_路径_18" data-name="&lt;路径&gt;" class="cls-6" d="M28.09,161.19a5.36,5.36,0,0,0-4.59-3.28c-2.44-.13-5.41,1.27-7.14,2.23a1.12,1.12,0,0,0-.1,1.9c1.62,1.14,4.43,2.84,6.87,3a5.36,5.36,0,0,0,4.9-2.79A1.11,1.11,0,0,0,28.09,161.19Z"/><path id="_路径_19" data-name="&lt;路径&gt;" class="cls-7" d="M27.18,154.6A5.36,5.36,0,0,0,30,159.5a1.11,1.11,0,0,0,1,.05A5.36,5.36,0,0,0,34.28,155c.13-2.44-1.27-5.41-2.23-7.14a1.12,1.12,0,0,0-1.9-.1C29,149.35,27.31,152.15,27.18,154.6Z"/></g><g id="_编组_15" data-name="&lt;编组&gt;"><path id="_路径_20" data-name="&lt;路径&gt;" class="cls-8" d="M37.48,169a5.36,5.36,0,0,0-5.09-2.43c-2.43.3-5.11,2.19-6.65,3.44a1.12,1.12,0,0,0,.23,1.89c1.8.84,4.86,2,7.28,1.72a5.36,5.36,0,0,0,4.34-3.59A1.11,1.11,0,0,0,37.48,169Z"/><path id="_路径_21" data-name="&lt;路径&gt;" class="cls-9" d="M35.44,162.7A5.36,5.36,0,0,0,39,167a1.11,1.11,0,0,0,1-.13,5.36,5.36,0,0,0,2.43-5.09c-.3-2.43-2.19-5.11-3.44-6.65a1.12,1.12,0,0,0-1.89.23C36.33,157.21,35.14,160.27,35.44,162.7Z"/></g><g id="_编组_16" data-name="&lt;编组&gt;"><path id="_路径_22" data-name="&lt;路径&gt;" class="cls-10" d="M48.1,175.12a5.36,5.36,0,0,0-5.43-1.51c-2.34.72-4.65,3-5.95,4.54a1.12,1.12,0,0,0,.56,1.82c1.92.51,5.13,1.15,7.47.43a5.36,5.36,0,0,0,3.65-4.29A1.11,1.11,0,0,0,48.1,175.12Z"/><path id="_路径_23" data-name="&lt;路径&gt;" class="cls-11" d="M45,169.24a5.36,5.36,0,0,0,4.29,3.65,1.11,1.11,0,0,0,1-.3,5.36,5.36,0,0,0,1.51-5.43c-.72-2.34-3-4.65-4.54-5.95a1.12,1.12,0,0,0-1.82.56C44.91,163.68,44.27,166.9,45,169.24Z"/></g><g id="_编组_17" data-name="&lt;编组&gt;"><path id="_路径_24" data-name="&lt;路径&gt;" class="cls-12" d="M59.6,179.28a5.36,5.36,0,0,0-5.61-.55c-2.18,1.11-4.05,3.81-5.07,5.51a1.12,1.12,0,0,0,.86,1.69c2,.17,5.26.24,7.43-.87a5.36,5.36,0,0,0,2.85-4.86A1.11,1.11,0,0,0,59.6,179.28Z"/><path id="_路径_25" data-name="&lt;路径&gt;" class="cls-13" d="M55.52,174a5.36,5.36,0,0,0,4.86,2.85,1.11,1.11,0,0,0,.92-.47,5.36,5.36,0,0,0,.55-5.61c-1.11-2.18-3.81-4.05-5.51-5.07a1.12,1.12,0,0,0-1.69.86C54.48,168.56,54.41,171.84,55.52,174Z"/></g></g><path class="cls-17" d="M74.7,17.44q-2.36,1.25-4.83,2.4-2.81,1.32-5.65,2.46Q61,23.6,57.6,24.73t-6.89,2.08q-3.42.93-7,1.69t-7.3,1.36q-3.23.52-6.39.89-2.67.31-5.39.55v76.55a19.33,19.33,0,0,0,.75,5.21,28,28,0,0,0,2.29,5.59,44.57,44.57,0,0,0,4.07,6.2,70,70,0,0,0,5.76,6.5c2.38,2.4,5,4.72,7.69,6.95,3,2.47,6.15,4.82,9.3,7C58,147.74,61.43,150,64.74,152c3.7,2.24,7.2,4.19,10.26,5.8,3.05-1.6,6.54-3.55,10.23-5.78,3.3-2,6.77-4.23,10.24-6.64,3.16-2.2,6.31-4.56,9.31-7,2.71-2.23,5.31-4.56,7.7-7a70.19,70.19,0,0,0,5.77-6.51,44.6,44.6,0,0,0,4.07-6.2,28,28,0,0,0,2.3-5.59,19.19,19.19,0,0,0,.75-5.2V31.47q-2.78-.13-5.39-.34-3.26-.26-6.38-.65-3.69-.46-7.4-1.14T99,27.79q-3.63-.92-7-2.08t-6.72-2.6q-2.94-1.29-5.74-2.8Q77.06,19,74.7,17.44Zm-5.86.09h0q2.69-1.26,5.34-2.69l.64-.35.61.41q2.54,1.69,5.26,3.16t5.56,2.71q3.16,1.38,6.53,2.52t6.86,2q3.47.88,7,1.53T113.89,28q3.09.38,6.27.64t6.5.39l1.2.05v78.81a21.77,21.77,0,0,1-.85,5.9,30.61,30.61,0,0,1-2.51,6.11,47,47,0,0,1-4.3,6.56,72.65,72.65,0,0,1-6,6.74c-2.45,2.47-5.11,4.85-7.88,7.13-3.07,2.52-6.26,4.91-9.47,7.15-3.52,2.45-7,4.71-10.38,6.73-4,2.42-7.73,4.49-10.93,6.16l-.57.3-.57-.3c-3.21-1.67-7-3.75-11-6.17-3.34-2-6.86-4.28-10.38-6.73-3.2-2.23-6.4-4.62-9.46-7.14-2.77-2.28-5.43-4.66-7.87-7.12a72.86,72.86,0,0,1-6-6.74,47,47,0,0,1-4.3-6.55A30.58,30.58,0,0,1,23,113.75a21.86,21.86,0,0,1-.85-5.91V28.95l1.16-.09q3.26-.26,6.44-.63t6.3-.87q3.62-.58,7.18-1.34t6.88-1.66q3.43-.93,6.75-2t6.48-2.38q2.85-1.15,5.53-2.4ZM47.89,16.08h0q3.34-.91,6.56-2t6.25-2.31q3-1.22,5.94-2.64t5.64-3a5.22,5.22,0,0,1,1.37-.6,5.12,5.12,0,0,1,1.47-.18,5.23,5.23,0,0,1,1.51.26,5.14,5.14,0,0,1,1.37.7,59.6,59.6,0,0,0,5.36,3.44q2.77,1.58,5.74,2.89t6.13,2.39q3.14,1.07,6.47,1.92t6.86,1.49q3.53.64,7.17,1.07t7.45.69c2.5.17,4.52.19,7.13.25l.31,0H131a6.38,6.38,0,0,1,1.93.47,5.22,5.22,0,0,1,1.7,1.16,5.37,5.37,0,0,1,1.13,1.74h0a5.43,5.43,0,0,1,.4,2V108a29.76,29.76,0,0,1-1.07,7.77,38.75,38.75,0,0,1-3.15,7.9,55,55,0,0,1-5,7.75,80.51,80.51,0,0,1-6.89,7.83A114.28,114.28,0,0,1,111.5,147c-3.32,2.72-6.81,5.31-10.31,7.74-4.05,2.8-8.07,5.35-11.84,7.6-4.64,2.76-8.92,5.08-12.41,6.84l-.26.09-1.06.26h0a3.71,3.71,0,0,1-2.6-.39c-3.5-1.78-7.79-4.1-12.43-6.86-3.76-2.24-7.77-4.78-11.81-7.58-3.49-2.42-7-5-10.29-7.72a113.18,113.18,0,0,1-8.53-7.7A80.4,80.4,0,0,1,23,131.42a55.09,55.09,0,0,1-5-7.75,38.78,38.78,0,0,1-3.15-7.91A29.84,29.84,0,0,1,13.82,108v-1.28h0V25.94a5.39,5.39,0,0,1,.37-2h0a5.32,5.32,0,0,1,1.06-1.69,5.22,5.22,0,0,1,1.59-1.18,5.07,5.07,0,0,1,.72-.28h0l1.2-.14c2.6-.15,5.15-.42,7.67-.68s5-.59,7.46-1,4.86-.82,7.15-1.3,4.59-1,6.84-1.65Zm7.47.93h0q3.21-1.08,6.35-2.36t6-2.68q2.94-1.42,5.79-3l0,0a2.69,2.69,0,0,1,.7-.31,2.73,2.73,0,0,1,.77-.09,2.66,2.66,0,0,1,.79.14,2.6,2.6,0,0,1,.7.36,62.17,62.17,0,0,0,5.55,3.55Q85,14.2,88,15.55T94.3,18q3.24,1.11,6.62,2t7,1.52q3.54.64,7.27,1.08t7.52.7q3.75.25,7.68.34h.2a2.61,2.61,0,0,1,1,.21,2.73,2.73,0,0,1,.88.6,2.76,2.76,0,0,1,.59.9h0a2.86,2.86,0,0,1,.2,1.06v81.49a26.89,26.89,0,0,1-1,7,35.84,35.84,0,0,1-2.93,7.32,52.07,52.07,0,0,1-4.74,7.34,77.38,77.38,0,0,1-6.63,7.53,110.54,110.54,0,0,1-8.31,7.49c-3.27,2.68-6.68,5.21-10.08,7.57-3.93,2.72-7.88,5.23-11.62,7.45-4.5,2.68-8.66,4.94-12.07,6.66l-1,.23h-.06s-.26,0-.8-.22c-3.44-1.74-7.64-4-12.2-6.73-3.73-2.22-7.67-4.71-11.59-7.43-3.39-2.35-6.79-4.87-10.05-7.54A111.25,111.25,0,0,1,32,137.08a77.2,77.2,0,0,1-6.63-7.53,51.85,51.85,0,0,1-4.74-7.34,35.92,35.92,0,0,1-2.93-7.32,27.2,27.2,0,0,1-1-6.57v-82a2.76,2.76,0,0,1,.19-1h0a2.71,2.71,0,0,1,1.38-1.48,2.58,2.58,0,0,1,1-.25l1.18-.07h0Q23.79,23.33,27,23q3.87-.41,7.52-1t7.23-1.33q3.56-.75,6.93-1.66T55.36,17Z"/><path class="cls-2" d="M74.76,16a108.31,108.31,0,0,1-11,5.19,119.24,119.24,0,0,1-13.36,4.5,136.65,136.65,0,0,1-14.18,3.05q-6.27,1-12.84,1.53v78.31a24.7,24.7,0,0,0,3.2,11.5,57.79,57.79,0,0,0,10,13.1,126.8,126.8,0,0,0,17.16,14.22A197.39,197.39,0,0,0,75,160.35a196.45,196.45,0,0,0,21.17-12.9,127,127,0,0,0,17.18-14.24,57.91,57.91,0,0,0,10.06-13.1,24.68,24.68,0,0,0,3.21-11.49V30.43c-4.43-.18-8.73-.52-12.87-1a115.28,115.28,0,0,1-14.4-2.69,87.26,87.26,0,0,1-13.57-4.64,71.71,71.71,0,0,1-11-6ZM48.39,17.87h0a111.43,111.43,0,0,0,12.86-4.35A100.16,100.16,0,0,0,72.94,7.84,3.86,3.86,0,0,1,77.26,8,63,63,0,0,0,88.5,14.44a79.41,79.41,0,0,0,12.72,4.39,109.07,109.07,0,0,0,14.09,2.59c4.91.59,10,.92,15.09,1h.16a3.88,3.88,0,0,1,2.79,1.19,4.12,4.12,0,0,1,1.15,2.87v82.11a32.62,32.62,0,0,1-4,15.08A65.46,65.46,0,0,1,118.86,139a134.63,134.63,0,0,1-18.56,15.31,209.56,209.56,0,0,1-23.95,14.36l-1.1.27a2.38,2.38,0,0,1-1.7-.31,210.66,210.66,0,0,1-23.94-14.36A134.14,134.14,0,0,1,31.11,139,65.26,65.26,0,0,1,19.52,123.7a32.63,32.63,0,0,1-4-15.09h0V26.5a4.11,4.11,0,0,1,1.08-2.78,3.89,3.89,0,0,1,2.64-1.27Q27,22,34.37,20.86A129.75,129.75,0,0,0,48.39,17.87Z"/><path class="cls-18" d="M74.8,10.84A118,118,0,0,1,48.52,21.18a155.9,155.9,0,0,1-30.2,4.74v81.94c0,9.2,6.13,18.45,14.64,26.82,12.76,12.54,30.79,23,41.94,28.62,11.13-5.57,29.17-16.07,41.93-28.62,8.52-8.38,14.66-17.63,14.66-26.82V26A143.21,143.21,0,0,1,101,22.17,80.43,80.43,0,0,1,74.8,10.84Zm-26.9,6.8h0A108.51,108.51,0,0,0,73.46,7.16a3.75,3.75,0,0,1,3-.05c7.72,4.93,15.76,9.13,25.36,11.52a128.59,128.59,0,0,0,29,3.5,4.76,4.76,0,0,1,.95.11c1.3.06,3,1.84,3,3.75v85c-.52,9.42-8.65,22.62-18.56,31-13.94,12.79-26.83,20.12-40.65,27.57a7.77,7.77,0,0,1-1.24,0C63.07,164,41.65,151.28,29.2,137.7c-9-8.89-14.72-20.22-14.09-30.17V25.86a4.38,4.38,0,0,1,3.21-3.66C29.35,21.08,38.31,20.18,47.9,17.64Z"/><path class="cls-2" d="M74.66,17C60.46,24.6,43.34,29.2,24.24,31v77.8C25.64,129.62,59,150,75,158.23c20.84-10.6,52.13-32.6,50.72-51.74V31.17C106.43,30.45,88.35,25.89,74.66,17Z"/><polygon class="cls-19" points="72.18 27.21 74.53 28.11 75.3 25.71 76.07 28.11 78.42 27.21 77.03 29.31 79.19 30.59 76.69 30.81 77.03 33.3 75.3 31.48 73.57 33.3 73.92 30.81 71.41 30.59 73.57 29.31 72.18 27.21"/><polygon class="cls-20" points="73.57 66.57 72.18 64.48 74.53 65.37 75.3 62.98 76.07 65.37 78.42 64.48 77.03 66.57 79.19 67.86 76.69 68.08 77.03 70.56 75.3 68.74 73.57 70.56 73.92 68.08 71.41 67.86 73.57 66.57"/><polygon class="cls-21" points="58.21 42.35 60.56 43.24 61.33 40.85 62.1 43.24 64.45 42.35 63.06 44.45 65.22 45.73 62.72 45.95 63.06 48.44 61.33 46.62 59.6 48.44 59.94 45.95 57.44 45.73 59.6 44.45 58.21 42.35"/><polygon class="cls-22" points="82.26 52.55 80.89 51.7 79.52 52.55 79.91 50.98 78.68 49.95 80.28 49.83 80.89 48.34 81.5 49.83 83.11 49.95 81.88 50.98 82.26 52.55"/><polygon class="cls-23" points="87.72 42.89 85.99 44.71 86.34 42.22 83.83 42.01 85.99 40.72 84.6 38.63 86.95 39.52 87.72 37.12 88.49 39.52 90.85 38.63 89.45 40.72 91.62 42.01 89.11 42.22 89.46 44.71 87.72 42.89"/><path class="cls-24" d="M38,109.35s-2.85-3.22,4.8-9.68l-.65,1.81a18.44,18.44,0,0,1,7.66-5l-.76.92s4.36-1.45,6-1.32c0,0-2.67-6.72-8.14-9.87A3.43,3.43,0,0,1,45,83.37a10.39,10.39,0,0,0,1.92.79S39.05,75.34,45.13,65a20.81,20.81,0,0,0,4.41,13.74s.61-4.31-2.2-12.61c0,0,5.47.28,6.74,12.07a18.39,18.39,0,0,0-.14-11.68S60.38,69,59.76,79.64a14.82,14.82,0,0,0,1.9-9.09A14.12,14.12,0,0,1,64,82.86a8.55,8.55,0,0,0,2.85-4.69s2.1,6.34-.56,9.72c0,0,2.7-2.06,3-4.66,0,0,2.46,4.17-.19,7.66,0,0,21-11.87,14.35-31.59,0,0,7.53.27,7.37,11.07a44.76,44.76,0,0,0,2.24-23.25s5.23,3.09,4.86,14.1c0,0,2.08-5.54,2.9-16.8a17.25,17.25,0,0,1,3,15.66,43.94,43.94,0,0,0,5.85-16.16s5.68,11.46-4.24,22.81c0,0,9.69-6.5,14.07-20.77,0,0,3,12-4.38,17.74a17.54,17.54,0,0,0,10.25-13.07A14,14,0,0,1,120,67.17s6-1.73,8.87-5.6A24.61,24.61,0,0,1,119.5,75s7.76-1.1,12.08-4.47c0,0,.07,4.41-5.61,7a45.14,45.14,0,0,0,5.92-.81s-2.63,4.15-5.12,5a7,7,0,0,0,3.87.17,11.37,11.37,0,0,1-5.78,4,4.52,4.52,0,0,0,3.62-.12,10,10,0,0,1-6.4,3.8s.87.66,3.14,0c0,0-1.94,3.27-7.33,3.23a3.22,3.22,0,0,0,2.57.75s-2.14,2.68-6.8,2.58c0,0,1.59,1.08,2.43.86a5.05,5.05,0,0,1-5.31,2.57,5,5,0,0,0,2,.78,6.56,6.56,0,0,1-5.17,2.15,4.15,4.15,0,0,0,2.61.38,6.56,6.56,0,0,1-5.6,2.46,2.45,2.45,0,0,0,2.17.63,4,4,0,0,1-4.6,1.93,2.86,2.86,0,0,0,2,.66,7.52,7.52,0,0,1-5.32,2.24,4.68,4.68,0,0,0,1.93.57,6.54,6.54,0,0,1-6.18,1.19,2.47,2.47,0,0,0,2,.73,6.75,6.75,0,0,1-4.69.9l1,.57s-2.31.66-3.5.18c0,0,5.58,3.73,19.22-2A13,13,0,0,1,98,119.36a17.5,17.5,0,0,0,8.15-.13s-4.53,5.73-14.05,3.91c0,0,2.49,2.61,7,1.2,0,0-3.61,4.23-11.94,1.08A5.9,5.9,0,0,0,90,127.35s-3.75,2.33-9.39-.57a3.39,3.39,0,0,0,1.78,2.35,9,9,0,0,1-8.31-2.42s-2.14,7.81-9.57,10l.85-1.32s-3.4,2.42-6.5,2.13l.81-.65s-1.28.8-4.05-.38a8.65,8.65,0,0,0-3,1.1l-1.2.54c-2,1-3.93-.82-3.93-.82a2.9,2.9,0,0,0-4.11,1.7,3,3,0,0,1,2.32-4,3.92,3.92,0,0,1,2.53.51s1-.09.19-1.58c0,0-.85.77-1.36-1.06a2.53,2.53,0,0,0-3.2.28s-.33-2.8,2.92-2.59a2,2,0,0,1,.88.53s.93-.9,2.37.54c0,0,.43,2.24,1.54,2.58a9.85,9.85,0,0,0,2.53.23s-.17-.58,1.21-1.17a9.68,9.68,0,0,0,5.13-4.36s-3.81,3.16-6.15,3.06l1-1.08s-2.89,1.33-4,.7l1-1a4.6,4.6,0,0,1-5-2l.91.16-2-1.11s-2.13.41-2.31.94c0,0,1.09,4.54-3.2,3.49,0,0,2.15-.47,1.79-2.17a1.73,1.73,0,0,1-1.15-1.08s-1.43.33-1.51-.12c0,0-.59,1.08-1.26,1.21a2.24,2.24,0,0,0,.53,2.77s-2.47-.66-2.32-2.59a2.91,2.91,0,0,1-2.63-3.2s-.09-1,1.89-1.11l.12-.66a9.78,9.78,0,0,0,1.9-1.61,4.67,4.67,0,0,1,2.24-1.15s.4.81,1.11,2.05a3.76,3.76,0,0,0,3.41,1.5s-.27-.42.67-.71c0,0,6.36,1.07,8.84-2.72l-1.8.4s3.1-2.53,2.4-7.92a7.68,7.68,0,0,0-5-4.28l.41.69s-3.56-.42-5.57.63c0,0,0,.66-1.27.58a13.72,13.72,0,0,1-3.74,2,2.08,2.08,0,0,0-1.25,2.56S34,115.81,38,109.35Z"/><path class="cls-25" d="M37.71,116s-1.88-2.15,1.05-6.17a5.71,5.71,0,0,0,2.85-.55s2-1.81,4.16-.8c0,0-2.66,2-3,3.25a4.37,4.37,0,0,1-3.23,1.88A2.33,2.33,0,0,0,37.71,116Z"/><path class="cls-26" d="M38.66,108.1s-.06-3.55,2.39-5.22l-.06,1a42.26,42.26,0,0,1,6.66-5.46l-.27.76s9.89-3.31,15.6-1.59c0,0-2.29,2.3-2.53,2.37a10,10,0,0,0,1.7.23L59.48,102l1.4.6s-1.73,1.37-2.61,2.16l1.52-.29s-2.69,1.72-3.26,2.24l2.16-.41-3.2,2.52,2.12-.41a5.35,5.35,0,0,1-5.31,2.14,7.32,7.32,0,0,0-4.18-.65l.86.62a7.72,7.72,0,0,0-4.77,1l-.88,0s2.59-2.91,4.65-2.95c0,0-2.06-3-6.52,0C41.47,108.65,38.76,110.06,38.66,108.1Z"/><path class="cls-27" d="M54.43,111.71s3.89,9.31,8.19,11c0,0-1.07-5,2.17-8.26,0,0-2.25,5.52-.5,9.49,0,0,1.15,4.86-8.12,10.07,0,0,.13,2.68,4.52,1.67l1.81-.9L61,136.48a11.54,11.54,0,0,0,6.2-4.84,11.3,11.3,0,0,1-.82,3.2s7.54-3.46,8.65-15.78a8.67,8.67,0,0,1-.16,6.49s.89,2.07,4.56,2.6a5.85,5.85,0,0,1-.13-3.7s3.74,2.91,7.85,2.47a3.73,3.73,0,0,1-1.52-3.6s6.11,2.47,7.79,2.15c0,0-2.6-.58-4.68-3.93,0,0,4.33,2.15,12.76-.3,0,0-5.64.26-8.86-1.56,0,0,8.32-1.27,11.76-4.08,0,0-8.72,3.77-16.7-.11a16.77,16.77,0,0,1-10-7.19s-5.29-5.7-7.84-7.46a51.81,51.81,0,0,1,8.27-11S93,77.13,86.53,63.12c0,0,1.21,8.09-2.63,15.09-2.54,4.64-4.58,7.23-14.91,15a10.41,10.41,0,0,0-4.45,4.42s-1.91,1.58-1.74,1.6,1.78,0,1.78,0l-3,2.63,1.59.23L61.24,104l1.81.51-3,.83,1,.85L59,107.35S59.82,110.68,54.43,111.71Z"/><path class="cls-28" d="M44.36,69.23S42.25,76.06,48,83.57c0,0,7.44,8.08,8.21,12.1l2.56.59s-3.94-8.74-9.89-13.76A19.77,19.77,0,0,1,44.36,69.23Z"/><path class="cls-29" d="M49.16,68.67a10.64,10.64,0,0,1,.75,1.76l.1.27c0,.12.1.28.17.5l.15.46.16.56c.06.2.11.4.16.61s.11.41.15.61c.09.39.17.75.22,1l.08.43.06.36c0,.23.09.54.14.89s.1.75.14,1.13.07.75.1,1.06l0,.74v.44a12.8,12.8,0,0,1,0,1.92c.08-.66.22-1.11.28-1.91l0-.44,0-.76c0-.32,0-.7,0-1.09s-.05-.79-.1-1.16-.09-.68-.13-.91l-.06-.37-.09-.44c-.05-.27-.14-.64-.24-1,0-.2-.11-.41-.18-.61s-.12-.42-.2-.61l-.2-.56c-.07-.17-.14-.33-.19-.46-.18-.43-.29-.62-.35-.75C49.81,69.59,49.5,69.24,49.16,68.67Z"/><path class="cls-30" d="M56.26,70.74a8.81,8.81,0,0,1,.23.88c.06.29.14.59.2,1l.15.79c.06.25.1.6.15,1s.12.77.16,1.15l.14,1.36s0,.13,0,.34l0,.83,0,.52c0,.18,0,.36,0,.54l0,1c0,.61,0,1,0,1.18,0,.4,0,.71,0,1a8.68,8.68,0,0,1,0,.91c.07-.66.24-1.1.33-1.9,0-.2.07-.58.12-1.19l0-1v-.54c0-.18,0-.36,0-.52l0-.85c0-.22,0-.35,0-.35l-.16-1.38c0-.38-.14-.78-.21-1.16a8.82,8.82,0,0,0-.23-1L57,72.54a6.18,6.18,0,0,0-.37-.95A8.88,8.88,0,0,1,56.26,70.74Z"/><path class="cls-31" d="M62.58,75.33a4.61,4.61,0,0,1,0,.47c0,.15,0,.29,0,.44s-.06.6-.1,1c0,.07,0,.15,0,.28s0,.29-.07.51l-.06.39-.09.46c-.06.29-.11.54-.11.54l0,.13-.08.33c0,.13-.07.27-.11.41s-.07.27-.1.38c-.16.58-.27.94-.33,1.13a14.47,14.47,0,0,1-.58,1.83c.3-.6.6-1,.94-1.7a11.53,11.53,0,0,0,.44-1.12c.08-.22.17-.54.24-.81l.08-.34,0-.14s.06-.25.11-.56l.07-.48,0-.41c0-.23,0-.41,0-.54s0-.22,0-.29A10,10,0,0,0,62.58,75.33Z"/><path class="cls-32" d="M65.94,82.47a7,7,0,0,1-.47,1.84l-.08.27c0,.12-.11.27-.18.48l-.06.17,0,.09,0,.07c-.11.23-.21.44-.29.62s-.17.31-.22.4a6.48,6.48,0,0,1-1,1.6c.23-.24.48-.39.71-.59a4,4,0,0,0,.7-.77c.06-.09.16-.23.27-.41s.21-.41.33-.65a.62.62,0,0,0,0-.08l0-.09.06-.18a5,5,0,0,0,.16-.52l.06-.29A8.22,8.22,0,0,0,65.94,82.47Z"/><path class="cls-33" d="M91.54,74.29c.17-.29.33-.55.5-.79s.35-.48.49-.74a14.33,14.33,0,0,0,1-1.79l.24-.53c.12-.24.22-.56.39-1,.09-.25.22-.55.32-.88l.32-1.07c.12-.37.2-.77.3-1.17s.19-.79.25-1.17l.19-1.08c.05-.33.08-.64.12-.89l.1-.83s0-.07,0-.19l0-.52c0-.44.09-1,.1-1.73,0-.34,0-.7,0-1.07s0-.74,0-1.1c0-.73-.07-1.44-.11-2l-.16-1.5c0-.2,0-.37-.07-.51l-.05-.36c-.23-1.6-.56-2.47-.78-3.78A32.72,32.72,0,0,1,95,53.42c0,.2,0,.48,0,.87s0,.88,0,1.49,0,1.28,0,2c0,.36,0,.72,0,1.08s0,.71-.05,1c0,.67-.08,1.26-.12,1.68l0,.5c0,.12,0,.18,0,.18l-.1.8c0,.25-.06.54-.1.87L94.37,65c0,.37-.13.76-.2,1.14s-.13.78-.23,1.15l-.25,1.06c-.07.33-.17.62-.24.88-.13.43-.2.76-.29,1l-.18.54A17.38,17.38,0,0,1,91.54,74.29Z"/><path class="cls-34" d="M95.4,71.74c.2-.27.39-.51.59-.73l.29-.34.28-.35.59-.74c.19-.27.4-.57.62-.91.07-.12.18-.26.3-.49l.52-.93c.22-.41.49-1,.78-1.58s.56-1.29.78-1.92l.32-.89c.09-.28.16-.53.23-.74l.21-.69,0-.16.11-.43c.09-.37.24-.87.35-1.45s.25-1.22.33-1.85c0-.31.09-.62.13-.92l.08-.83c0-.31.06-.59.06-.84l0-.67v-.52c0-.15,0-.27,0-.37,0-.4,0-.77-.05-1.1s-.08-.64-.12-.94c-.06-.6-.2-1.15-.24-1.81,0,.33,0,.64,0,.94s0,.3,0,.44l0,.44-.08.93c0,.33-.08.68-.12,1.07,0,.1,0,.22,0,.36l-.07.5-.08.65c0,.24-.08.51-.13.81l-.13.8-.17.89c-.11.61-.26,1.23-.39,1.79s-.27,1.05-.36,1.41L100,61l0,.15-.2.67-.21.72-.29.87c-.19.62-.46,1.28-.67,1.9s-.46,1.18-.65,1.6l-.42,1c-.1.24-.18.39-.24.51-.17.36-.32.68-.46,1l-.42.83-.2.4-.23.38C95.76,71.21,95.59,71.47,95.4,71.74Z"/><path class="cls-35" d="M99.76,70.9c.89-1,1.64-1.56,2.68-2.79l.37-.45.29-.36.38-.48c.24-.33.58-.78.92-1.27s.7-1,1-1.54l.44-.72.34-.6.31-.56.07-.13.18-.36c.15-.3.37-.72.59-1.2s.46-1,.66-1.54.4-1,.54-1.48l.26-.8.17-.65c.1-.39.18-.66.21-.86.08-.4.14-.76.19-1.09s.06-.64.09-.94c.07-.6,0-1.17.14-1.83a9.57,9.57,0,0,1-.41,1.78c-.09.28-.18.57-.29.88s-.23.64-.36,1c-.05.19-.17.45-.3.81l-.23.62-.31.76c-.16.41-.38.9-.61,1.4s-.48,1-.69,1.48-.44.86-.59,1.16l-.17.35-.07.12-.3.55-.32.59-.41.71c-.28.51-.62,1-.92,1.55l-.81,1.31-.57.88-.31.48c-.22.33-.41.63-.59.91l-.5.79A12.23,12.23,0,0,1,99.76,70.9Z"/><path class="cls-36" d="M103.8,72.12c1.11-.75,2-1.13,3.25-2.09.22-.16.58-.43,1.29-1,.38-.31.88-.75,1.41-1.24s1.08-1,1.57-1.55.92-1,1.23-1.37l.49-.59.4-.51c.25-.32.59-.77.95-1.29s.73-1.11,1.08-1.7.64-1.18.87-1.68c.13-.28.25-.54.34-.78s.18-.44.24-.63l.17-.49.11-.36c.12-.39.19-.75.26-1.08s.11-.64.13-.94c.07-.6.07-1.17.11-1.83a6.07,6.07,0,0,1-.12.93c0,.15-.06.29-.1.43l-.13.42c-.08.28-.2.56-.3.87s-.25.63-.41,1l-.14.33-.21.45c-.08.17-.18.37-.29.59s-.24.46-.39.72c-.25.46-.59,1-.94,1.56s-.74,1.11-1.1,1.6-.69.93-.93,1.24l-.39.5-.47.58c-.3.35-.71.84-1.17,1.35-.92,1-2.06,2.22-2.76,2.9l-.75.73-.41.39L105.21,71A11.71,11.71,0,0,1,103.8,72.12Z"/><path class="cls-37" d="M108.68,73a14.31,14.31,0,0,1,1.64-.81l.42-.19.43-.22c.3-.15.61-.32,1-.53l.5-.29c.22-.14.51-.33.89-.58l.78-.53c.3-.2.61-.44.89-.66l1-.8.25-.2.61-.52.75-.66c.26-.22.49-.45.69-.64l1.07-1.07c.28-.28.46-.5.6-.65a19.34,19.34,0,0,0,1.28-1.58,14.29,14.29,0,0,1,1.14-1.43c-.94,1-1.73,1.45-2.94,2.48-.15.13-.36.32-.66.57l-1.13,1c-.2.18-.45.39-.71.6l-.76.63-.6.51-.25.2-1,.8c-.27.22-.56.47-.85.68l-.73.57-.82.65-.45.34A36.15,36.15,0,0,1,108.68,73Z"/><path class="cls-38" d="M114.32,74.08A3.62,3.62,0,0,1,115,74a5,5,0,0,0,.82-.11,7.44,7.44,0,0,0,.92-.28l.32-.12.32-.15.33-.16.32-.18c.21-.12.42-.24.6-.36s.35-.23.49-.33l.45-.33.43-.35.44-.39c.16-.15.33-.31.5-.48a13.13,13.13,0,0,0,.93-1c.26-.33.46-.62.56-.76.36-.53.45-.92.77-1.33a9.27,9.27,0,0,1-1.18,1l-.7.59-1,.87-.51.42-.43.35-.3.24-.11.09-.42.32-.45.33-.53.38-.57.38-.28.18-.27.16c-.34.22-.64.37-.78.46s-.48.27-.68.4A2.79,2.79,0,0,1,114.32,74.08Z"/><path class="cls-39" d="M116.52,78a7.91,7.91,0,0,0,1.8.47,7.11,7.11,0,0,0,2.09,0,12.84,12.84,0,0,0,1.63-.37l.21-.07.11,0,.1,0a15.61,15.61,0,0,0,2.22-.92,18.52,18.52,0,0,0,3.17-2.29,5.92,5.92,0,0,1-1.64.78c-.56.19-1.16.38-1.9.65-.4.15-1.2.44-2.18.77l-.1,0-.1,0-.2.06c-.85.28-1.26.39-1.52.46-.75.2-1.33.38-1.91.5A3.23,3.23,0,0,1,116.52,78Z"/><path class="cls-40" d="M119,82.24a15.11,15.11,0,0,0,1.94,0l.29,0c.13,0,.3,0,.53-.08s.39-.07.63-.13.5-.13.73-.2.44-.15.59-.2l.25-.09.21-.08.5-.22.61-.31.56-.32c.26-.17.48-.3.64-.41l.36-.26c.65-.49.94-.86,1.44-1.29a12.37,12.37,0,0,1-1.63,1l-.38.21-.65.35-.56.28-.6.28-.48.21-.2.08-.24.09-.57.21-.69.23c-.23.08-.44.13-.6.17l-.5.13-.27.07c-.39.08-.69.16-1,.2A4.55,4.55,0,0,1,119,82.24Z"/><path class="cls-41" d="M118.45,86.15a4.84,4.84,0,0,0,2,.11l.29-.07c.13,0,.3-.09.52-.17l.11,0,.06,0,.05,0a7.88,7.88,0,0,0,1.06-.57c.68-.44,1-.83,1.54-1.19-.58.33-1.06.43-1.76.78-.19.09-.57.29-1,.49l-.05,0-.05,0-.11,0-.27.11-.2.08-.26.09c-.36.11-.65.22-.94.27A2.47,2.47,0,0,1,118.45,86.15Z"/><path class="cls-42" d="M116.86,89.17a4.16,4.16,0,0,1,.51.13h.33a2.15,2.15,0,0,0,.48-.07,2.23,2.23,0,0,0,.42-.13l.18-.07.17-.09a3.1,3.1,0,0,0,.37-.23,3.73,3.73,0,0,0,.37-.3l.23-.22a3.16,3.16,0,0,1,.32-.41,2.57,2.57,0,0,1-.48.19l-.28.13-.4.2-.36.18-.15.08-.16.07c-.1,0-.22.11-.36.15a4.26,4.26,0,0,1-.4.15l-.28.1A2.12,2.12,0,0,1,116.86,89.17Z"/><path class="cls-43" d="M88.75,83.34a3.43,3.43,0,0,1,.69-.3l.37-.13a2.24,2.24,0,0,0,.42-.19l.85-.5a5.35,5.35,0,0,0,.58-.41l.59-.46a6.25,6.25,0,0,0,.54-.47l.43-.42.3-.3.11-.11.38-.43c.22-.27.55-.61.83-1s.6-.82.81-1.2.4-.69.48-.85c.31-.59.35-1,.65-1.46a12.69,12.69,0,0,1-1.09,1.15c-.12.13-.36.38-.65.7s-.63.68-.94,1-.63.69-.86.94l-.37.41-.1.11-.28.29-.4.42c-.15.16-.3.33-.48.49l-.51.51c-.17.17-.32.34-.48.48s-.56.53-.69.65-.22.22-.32.31l-.27.27A3.39,3.39,0,0,1,88.75,83.34Z"/><path class="cls-44" d="M89.35,86.48c.32-.1.63-.14.92-.21l.87-.22c.29-.09.59-.18.91-.3a9.42,9.42,0,0,0,1-.47l.51-.29.39-.24.52-.34.42-.3.48-.36.55-.45s.21-.17.46-.4.56-.51.77-.72.42-.41.59-.6l.46-.5c.26-.3.45-.52.58-.68,1-1.25,1.38-2.15,2.18-3.21a10,10,0,0,1-1.28,1.3c-.45.39-.93.8-1.5,1.35l-.63.6-.48.45-.6.55-.76.68-.44.39-.52.44-.45.36-.38.31-.47.36-.35.27-.45.33c-.31.24-.61.42-.87.62l-.77.52c-.25.16-.5.29-.77.43A6.06,6.06,0,0,1,89.35,86.48Z"/><path class="cls-45" d="M91.46,89a7.84,7.84,0,0,0,1.83.28,6.1,6.1,0,0,0,2.07-.33l.56-.21.43-.19c.17-.07.35-.17.56-.27s.74-.41,1.12-.65.68-.46.68-.46l.17-.12.4-.3c.31-.24.69-.54.94-.76.94-.81,1.47-1.36,1.75-1.64,1.13-1.15,1.57-2,2.53-2.93a13.55,13.55,0,0,1-1.44,1.13c-.49.35-1,.71-1.63,1.21-.31.24-.89.72-1.84,1.46l-.93.71-.39.29-.16.11-.64.45c-.35.24-.77.51-1,.67l-.5.3-.38.21-.49.25a11,11,0,0,1-1.81.72A3.5,3.5,0,0,1,91.46,89Z"/><path class="cls-46" d="M93.46,92.76a8.71,8.71,0,0,1,.94.1l.9.08c.3,0,.62,0,1,0s.7-.06,1.11-.11l.24,0,.33-.07.46-.1.59-.17c.16-.05.39-.11.62-.2l.71-.27c.23-.09.43-.19.58-.25l.24-.11.2-.09.49-.25.6-.32.55-.33c.27-.16.5-.32.71-.46s.4-.27.55-.39l.71-.55a30,30,0,0,0,2.69-2.81,8.2,8.2,0,0,1-.72.61l-.74.5-.79.49c-.28.17-.59.35-.92.57l-.74.45-.56.33c-.21.12-.44.26-.71.4l-.54.3-.58.3-.46.24-.19.09-.23.11-.54.25-.66.28c-.21.1-.42.16-.57.23l-.55.21-.42.14-.53.18c-.38.1-.71.21-1,.3l-.89.23-.87.15A8.6,8.6,0,0,1,93.46,92.76Z"/><path class="cls-47" d="M96.18,97.49a16.33,16.33,0,0,0,3.91,0l.58-.12c.13,0,.28-.06.45-.11l.6-.17c.17,0,.57-.2.57-.2s.34-.11.52-.19.55-.23.78-.35l.61-.31c.35-.21.61-.35.77-.47a15.86,15.86,0,0,0,2.83-2.7,6.33,6.33,0,0,1-1.5,1c-.26.14-.53.28-.83.42l-1,.47-.77.37-.59.26c-.22.1-.47.2-.74.31l-.48.19-.53.2-.55.19-.42.13-.53.17-1,.3-.45.14-.44.12A6.38,6.38,0,0,1,96.18,97.49Z"/><path class="cls-48" d="M95,103.69a6.6,6.6,0,0,1,1,.21l.59.05a6.76,6.76,0,0,0,.88,0,6.87,6.87,0,0,0,.79-.1l.34-.06.34-.08a6.45,6.45,0,0,0,.76-.23,6.19,6.19,0,0,0,.81-.35c.24-.12.43-.24.52-.3.34-.23.48-.47.78-.61a5.11,5.11,0,0,1-1,.1l-.57.08c-.25.05-.55.09-.83.15l-.74.15-.32.07-.32.06-.74.17c-.28.06-.57.15-.82.21l-.56.16A5.26,5.26,0,0,1,95,103.69Z"/><path class="cls-49" d="M81,105.47a2.3,2.3,0,0,1,.5.35,4.72,4.72,0,0,0,.58.39,5.52,5.52,0,0,0,.74.31,4.28,4.28,0,0,0,.56.17,4.91,4.91,0,0,0,.61.12,5,5,0,0,0,.59.06c.18,0,.36,0,.5,0h.47l.47,0a8,8,0,0,0,1.06-.2c.2,0,.4-.11.59-.17a5.69,5.69,0,0,0,.54-.2,7.4,7.4,0,0,0,.72-.34,5.29,5.29,0,0,0,.57-.39,2.26,2.26,0,0,1,.51-.33,6,6,0,0,1-1.26.21l-.75.12-1.1.16c-.37.05-.73.09-1,.11l-.43,0-.43,0h-1l-.56,0-.53,0c-.33,0-.6-.08-.74-.09l-.66-.07A2.13,2.13,0,0,1,81,105.47Z"/><path class="cls-50" d="M81.95,101.67a2.77,2.77,0,0,1,.65.1,4.71,4.71,0,0,0,.73.1,7.39,7.39,0,0,0,.86,0,6,6,0,0,0,.61-.07c.21,0,.43-.07.64-.12a10.46,10.46,0,0,0,1.11-.31l.47-.17.46-.19c.28-.12.65-.29,1-.5a12.28,12.28,0,0,0,1.07-.65c.31-.21.56-.4.68-.5.45-.35.64-.67,1-.92a9,9,0,0,1-1.3.45l-.77.3-1.13.45-1,.41-.44.18-.44.17-1,.37-.58.2-.55.17c-.35.11-.64.18-.78.23l-.68.22A2.38,2.38,0,0,1,81.95,101.67Z"/><path class="cls-51" d="M81.91,97.69a2.15,2.15,0,0,1,.57,0,3.63,3.63,0,0,0,.65-.06,4.79,4.79,0,0,0,.72-.22,4,4,0,0,0,.5-.22,4.9,4.9,0,0,0,.5-.28,5.35,5.35,0,0,0,.46-.3l.37-.28L86,96a10.74,10.74,0,0,0,1-1,13,13,0,0,0,1.09-1.43,7.81,7.81,0,0,1,.61-1,9.72,9.72,0,0,1-1,.66l-.57.44c-.25.2-.54.45-.81.68l-1,.9-.31.26-.32.27-.39.32-.41.32-.4.29c-.25.18-.47.31-.57.39l-.51.35A1.76,1.76,0,0,1,81.91,97.69Z"/><path class="cls-52" d="M81.21,93.12a3,3,0,0,1,.6-.29,4.77,4.77,0,0,0,.68-.34,8,8,0,0,0,.72-.51c.16-.12.32-.26.48-.41s.33-.31.48-.47.3-.32.43-.47.25-.29.34-.42l.31-.41.29-.42c.17-.26.4-.61.61-1a12.61,12.61,0,0,0,.57-1.16c.16-.36.26-.66.32-.81.2-.56.18-.93.38-1.37a9.09,9.09,0,0,1-.86,1.12l-.5.69-.72,1-.93,1.32-.29.39-.31.41-.37.48-.39.5-.38.47c-.23.29-.44.52-.54.64s-.33.4-.46.58A2.47,2.47,0,0,1,81.21,93.12Z"/><path class="cls-53" d="M106.1,77.47a3.5,3.5,0,0,1,.47.08,3.1,3.1,0,0,0,.44.09,3.57,3.57,0,0,0,1,0l.3,0,.23-.05.3-.08.09,0h.1c.26-.09.48-.19.68-.26s.33-.17.43-.22c.72-.38,1-.77,1.59-1.12a16.58,16.58,0,0,1-1.79.7l-.43.17-.64.23h-.09l-.09,0-.28.09-.21.06-.27.06A5.48,5.48,0,0,1,106.1,77.47Z"/><path class="cls-54" d="M108.89,81.64a1.77,1.77,0,0,1,.36.11,3,3,0,0,0,.41.1,3.45,3.45,0,0,0,.49,0l.35,0,.37-.06a4.77,4.77,0,0,0,.64-.17l.27-.1a6.48,6.48,0,0,0,.84-.41,6.14,6.14,0,0,0,.6-.39c.18-.12.31-.24.38-.3.25-.21.35-.38.57-.54a5.11,5.11,0,0,1-.71.31l-1.05.48-.57.25-.25.1-.25.09c-.15.05-.36.13-.58.19l-.33.09-.32.07c-.2,0-.37.06-.45.08l-.4.06A1.53,1.53,0,0,1,108.89,81.64Z"/><path class="cls-55" d="M110.19,85.56a5.11,5.11,0,0,0,2-.1l.28-.09a4.74,4.74,0,0,0,.5-.21l.29-.15.18-.1.15-.09.25-.17c.13-.09.24-.18.34-.26l.26-.22c.15-.13.26-.24.33-.31a11.56,11.56,0,0,0,1.16-1.57,3.81,3.81,0,0,1-.66.63l-.79.61-.34.26-.26.19-.33.23-.24.16-.14.09-.17.1-.26.15c-.19.11-.34.18-.45.23L112,85c-.35.16-.64.27-.92.36A2.6,2.6,0,0,1,110.19,85.56Z"/><path class="cls-56" d="M110.47,89.85c.22,0,.37.09.65.11h.41a4.19,4.19,0,0,0,.59-.11,5,5,0,0,0,.51-.19,1.3,1.3,0,0,0,.22-.1l.21-.11.22-.12.24-.17a3.63,3.63,0,0,0,.46-.38l.28-.28a5.5,5.5,0,0,1,.39-.52,4.67,4.67,0,0,1-.56.31l-.34.19-.49.28c-.16.1-.32.18-.44.24l-.19.1-.2.09-.46.2c-.18.06-.36.15-.52.19l-.36.11c-.12,0-.22.06-.32.1A1.1,1.1,0,0,1,110.47,89.85Z"/><path class="cls-57" d="M110.22,95.15a1.09,1.09,0,0,1,.3,0,2.2,2.2,0,0,0,.34,0,2.46,2.46,0,0,0,.39-.08,2.55,2.55,0,0,0,.55-.22,3,3,0,0,0,.45-.29l.18-.15a4.19,4.19,0,0,0,.52-.55,4.84,4.84,0,0,0,.51-.81,6.28,6.28,0,0,1,.24-.58,3.74,3.74,0,0,1-.46.42l-.65.65c-.26.26-.5.48-.5.48l-.16.13c-.1.08-.23.19-.38.29a4.53,4.53,0,0,1-.44.28c-.14.09-.26.13-.32.17A1.93,1.93,0,0,1,110.22,95.15Z"/><path class="cls-58" d="M84,110.15a4.06,4.06,0,0,0,1.9.53l.3,0,.24,0,.31-.07.18-.05.09,0,.08,0a4.56,4.56,0,0,0,1.09-.57,6.42,6.42,0,0,0,1.31-1.46,3,3,0,0,1-.7.58c-.25.16-.52.31-.86.49a7.45,7.45,0,0,1-1,.46l-.07,0-.08,0-.16.05-.27.07-.21,0-.27,0c-.19,0-.36.05-.51.06l-.23,0h-.22A2.26,2.26,0,0,1,84,110.15Z"/><path class="cls-59" d="M87.33,112.5a2.51,2.51,0,0,1,.41.09H88a2.24,2.24,0,0,0,.37,0,2.4,2.4,0,0,0,.32-.1l.14-.05.13-.06a2.23,2.23,0,0,0,.29-.16,2.48,2.48,0,0,0,.29-.22l.18-.17c.11-.13.15-.25.25-.33a1.69,1.69,0,0,1-.4.1l-.23.07-.33.12-.28.12-.12.05-.12.05-.28.12-.31.14-.21.1A1.39,1.39,0,0,1,87.33,112.5Z"/><path class="cls-60" d="M95.25,107c.24,0,.4.13.7.18l.44,0a4.09,4.09,0,0,0,.66,0,4.2,4.2,0,0,0,.59-.11l.25-.06.25-.08a4.14,4.14,0,0,0,.55-.22,4.58,4.58,0,0,0,.57-.32l.36-.25c.23-.19.33-.35.53-.48a5,5,0,0,1-.66.25l-.4.15c-.17.08-.39.14-.59.21s-.39.13-.53.18l-.23.08-.23.06c-.14,0-.33.1-.54.14s-.42.11-.6.13l-.42.07A4,4,0,0,1,95.25,107Z"/><path class="cls-61" d="M96.1,109.32a2.07,2.07,0,0,1,.42,0h.25a2.73,2.73,0,0,0,.37-.06,2.5,2.5,0,0,0,.33-.1l.14-.05.14-.06a2.1,2.1,0,0,0,.3-.17,2,2,0,0,0,.3-.24l.18-.19c.1-.15.12-.27.22-.36a1.4,1.4,0,0,1-.38.15l-.22.09c-.09,0-.21.08-.32.13l-.28.12-.12.05-.13,0-.29.12-.32.15-.22.11A1.66,1.66,0,0,1,96.1,109.32Z"/><path class="cls-62" d="M45.51,135.5a.74.74,0,0,1,0,.9,3.69,3.69,0,0,1,2.39.35c.05,0,1.93,1.55,3.47.49,0,0,3-1.08,3.35-1.12l-.46-1s-3.21.28-3.6-.87a6.84,6.84,0,0,1-1-2.32s-1-.8-1.79-.47c0,0-.45,1.38.13,1.57a2,2,0,0,1,1.29,2.13s-.12,1.48-1.53.7A3.73,3.73,0,0,0,45.51,135.5Z"/><path class="cls-63" d="M56.45,117s-.78,4-1.67,4.53l1.71-.06s-1.49,5.22-9.8,4.83c0,0,5.43,1.7,9.87-1.42,0,0-1.06-.32-.93-.38A6.7,6.7,0,0,0,58,120.54l-1.76,0S57,118.37,56.45,117Z"/><path class="cls-64" d="M45.19,135.77s-1.6.12-1.62,2.2c0,0,.68-1.67,1.69-1.77C45.27,136.2,45.42,136.06,45.19,135.77Z"/><path class="cls-65" d="M47.43,131.39a2.23,2.23,0,0,0-3.06,1s1.6-1.46,2.92-.29A4.28,4.28,0,0,1,47.43,131.39Z"/><path class="cls-66" d="M43.41,130.44a1.92,1.92,0,0,1-2.24,1.61A2.2,2.2,0,0,0,42.54,130,6.72,6.72,0,0,0,43.41,130.44Z"/><path class="cls-67" d="M37.42,129.29a2.23,2.23,0,0,0,.87,2.62,3.53,3.53,0,0,1-.13-2.46C38.28,129.06,37.58,129.29,37.42,129.29Z"/><path class="cls-68" d="M40.13,123.28a2.22,2.22,0,0,0-1.79,1,5,5,0,0,1-1.47,1s-.35,2.41.45,3.38a21.71,21.71,0,0,1,.51-2.88,2.68,2.68,0,0,0,1.38-.95S39.36,123.55,40.13,123.28Z"/><path class="cls-69" d="M36.27,126.42s-1.31-.05-1.51.43c0,0-.39,1.77,1.85,2.67a3.15,3.15,0,0,1-1.06-2.27S35.38,126.68,36.27,126.42Z"/><path class="cls-70" d="M44.94,126.32a3.42,3.42,0,0,1-3.52-1.45l-1.06-1.26.48,2A2.84,2.84,0,0,0,44.94,126.32Z"/><path class="cls-2" d="M39.33,111.67s.81-1.41,1.59-1.26C40.92,110.41,41.91,110.77,39.33,111.67Z"/><path class="cls-2" d="M46.54,104.27a3,3,0,0,0-3.2-.33c-1.18.56-2.17,3-2.17,3-.65,0-.66-.34-.66-.34-.32,1.41,1.05,1.14,1.05,1.14,4.4-.84,3-3.17,3-3.17A3.42,3.42,0,0,1,46.54,104.27Zm-4.63,2.46a4.29,4.29,0,0,1,.58-.91.83.83,0,0,1-.08-.75.84.84,0,0,0,.08.75l0,0c.22.37.6.55.85.4s.27-.57,0-.94a1.13,1.13,0,0,0-.12-.15,1.55,1.55,0,0,1,.87-.19S44.18,106.9,41.91,106.72Z"/><rect class="cls-2" x="179.84" y="110.54" width="336.76" height="2"/></svg>